<svg xmlns="http://www.w3.org/2000/svg" xmlns:xlink="http://www.w3.org/1999/xlink" viewBox="0 0 398 351"><defs><style>.cls-1{fill:#fff;fill-rule:evenodd;}.cls-2{mask:url(#mask);}.cls-3{fill:#29abe2;}.cls-4{fill:#0ae280;}</style><mask id="mask" x="-0.03" y="-0.03" width="398.06" height="351.03" maskUnits="userSpaceOnUse"><g id="mask-2"><path id="path-1" class="cls-1" d="M44.26,343.22V209.58H9.3a9.33,9.33,0,0,1-6.64-15.89l188-190.26h0a11.67,11.67,0,0,1,16.5-.09l.08.07,98.15,98.86V84h0a7.78,7.78,0,0,1,7.78-7.77h32.65A7.77,7.77,0,0,1,353.6,84v67.14l41.76,42.6h0a9.34,9.34,0,0,1-6.66,15.87H353.6V343.22h0a7.78,7.78,0,0,1-7.78,7.78H52A7.78,7.78,0,0,1,44.26,343.22Z"/></g></mask></defs><g id="Layer_2" data-name="Layer 2"><g id="Layer_2-2" data-name="Layer 2"><g id="Page-1"><g id="house"><g id="House-2" data-name="House"><g class="cls-2"><g id="fill_black" data-name="fill/black"><rect id="Rectangle-2" class="cls-3" width="398" height="351"/></g></g></g></g></g><path class="cls-4" d="M260,135.83V258.29l-34.48-36.22L158.2,289.34l-46-50,67.32-67.27-36.12-36.22H260"/></g></g></svg>